<?xml version="1.0" encoding="UTF-8" standalone="no"?>
<svg
   xmlns:dc="http://purl.org/dc/elements/1.1/"
   xmlns:cc="http://creativecommons.org/ns#"
   xmlns:rdf="http://www.w3.org/1999/02/22-rdf-syntax-ns#"
   xmlns:svg="http://www.w3.org/2000/svg"
   xmlns="http://www.w3.org/2000/svg"
   xmlns:sodipodi="http://sodipodi.sourceforge.net/DTD/sodipodi-0.dtd"
   xmlns:inkscape="http://www.inkscape.org/namespaces/inkscape"
   width="114pt"
   height="36pt"
   viewBox="0 0 114 36"
   version="1.1"
   id="svg3009"
   inkscape:version="0.48.2 r9819"
   sodipodi:docname="logo_blue.svg">
  <metadata
     id="metadata3021">
    <rdf:RDF>
      <cc:Work
         rdf:about="">
        <dc:format>image/svg+xml</dc:format>
        <dc:type
           rdf:resource="http://purl.org/dc/dcmitype/StillImage" />
      </cc:Work>
    </rdf:RDF>
  </metadata>
  <defs
     id="defs3019" />
  <sodipodi:namedview
     pagecolor="#ffffff"
     bordercolor="#666666"
     borderopacity="1"
     objecttolerance="10"
     gridtolerance="10"
     guidetolerance="10"
     inkscape:pageopacity="0"
     inkscape:pageshadow="2"
     inkscape:window-width="1091"
     inkscape:window-height="718"
     id="namedview3017"
     showgrid="false"
     inkscape:zoom="2.2736842"
     inkscape:cx="71.25"
     inkscape:cy="22.5"
     inkscape:window-x="449"
     inkscape:window-y="134"
     inkscape:window-maximized="0"
     inkscape:current-layer="svg3009" />
  <path
     fill="#ffffff"
     d=" M 0.00 0.00 L 114.00 0.00 L 114.00 36.00 L 0.00 36.00 L 0.00 0.00 Z"
     id="path3011"
     style="fill:#ffffff;fill-opacity:0" />
  <path
     fill="#243db3"
     d=" M 10.57 15.52 C 8.57 11.35 12.34 5.85 16.98 6.24 C 19.38 5.88 21.33 7.37 22.97 8.89 C 22.08 10.16 21.18 11.42 20.26 12.67 C 19.65 10.77 19.32 8.24 17.06 7.58 C 14.59 6.80 12.28 9.50 13.14 11.83 C 14.95 15.78 19.87 17.72 20.64 22.23 C 21.18 27.96 14.07 32.07 9.10 29.80 C 7.72 29.18 6.62 28.12 5.44 27.20 C 6.29 25.70 7.15 24.21 8.03 22.72 C 8.68 24.51 8.89 26.54 10.09 28.07 C 12.68 30.18 17.03 28.25 17.38 24.95 C 16.45 20.98 11.91 19.31 10.57 15.52 Z"
     id="path3013" />
  <path
     d=" M 28.33 10.76 C 29.75 10.52 31.17 10.29 32.58 10.05 C 32.01 11.88 31.45 13.71 30.89 15.54 C 31.54 15.62 32.86 15.77 33.52 15.84 C 33.07 17.60 31.94 18.64 30.12 18.70 C 29.22 21.44 27.77 24.33 28.84 27.25 C 31.81 27.29 34.04 24.92 35.78 22.80 C 34.57 19.72 35.29 15.65 39.21 15.24 C 39.22 17.00 39.22 18.75 39.23 20.50 C 41.17 18.85 42.88 16.95 44.58 15.05 C 44.26 18.82 42.13 22.17 41.99 25.95 C 42.82 28.75 45.50 25.57 47.09 25.05 C 47.96 20.73 50.94 16.52 55.49 15.68 C 56.95 15.31 57.98 16.73 59.14 17.33 C 60.49 16.68 61.84 16.02 63.18 15.35 C 62.17 18.92 60.87 22.43 60.44 26.13 C 61.54 28.59 63.17 26.46 64.34 25.32 C 65.98 23.63 66.12 21.13 66.86 19.00 C 66.42 18.82 65.54 18.46 65.09 18.28 C 65.96 17.29 66.84 16.32 67.75 15.37 C 68.30 13.82 68.84 12.28 69.36 10.72 C 70.77 10.51 72.18 10.29 73.58 10.06 C 73.01 11.89 72.45 13.71 71.89 15.54 C 72.56 15.62 73.91 15.79 74.58 15.87 C 74.03 17.83 72.06 18.26 70.80 19.51 C 69.85 21.95 68.93 24.68 69.86 27.28 C 72.09 27.29 73.77 25.77 75.46 24.53 C 75.96 21.86 76.69 19.25 77.50 16.67 C 79.05 16.33 80.58 15.98 82.13 15.63 C 80.98 19.08 79.46 22.49 79.18 26.15 C 79.21 28.81 82.14 27.22 82.89 25.96 C 85.01 23.31 85.38 19.76 86.42 16.62 C 87.90 16.30 89.38 15.98 90.86 15.66 C 89.72 19.43 88.28 23.17 88.10 27.14 C 93.51 26.28 96.46 20.96 98.62 16.46 C 99.77 16.17 100.92 15.87 102.06 15.55 C 101.72 18.32 103.32 20.64 104.03 23.19 C 103.30 27.87 97.68 32.43 93.20 29.20 C 94.00 27.96 94.83 26.73 95.67 25.52 C 96.40 26.64 97.12 27.77 97.84 28.90 C 99.00 28.07 100.81 27.57 101.04 25.92 C 100.84 23.56 99.21 21.68 98.21 19.64 C 95.51 23.91 92.26 28.31 87.48 30.36 C 85.24 30.98 84.48 28.11 84.07 26.52 C 82.12 28.55 77.92 32.60 75.71 28.72 C 75.63 27.77 75.47 25.87 75.39 24.92 C 73.86 27.78 70.89 30.81 67.35 30.34 C 66.07 29.37 65.72 27.70 65.02 26.35 C 63.32 27.85 61.77 29.81 59.48 30.40 C 57.07 30.91 55.42 26.15 58.03 25.37 C 57.23 25.72 55.62 26.42 54.82 26.78 C 56.10 24.00 58.20 21.14 57.67 17.91 C 56.45 15.15 54.06 17.53 53.09 19.10 C 51.54 21.67 49.95 25.43 52.82 27.78 L 53.77 26.42 C 54.38 26.98 55.00 27.55 55.60 28.12 C 53.91 28.86 52.40 30.37 50.48 30.42 C 48.20 30.02 47.71 27.51 47.17 25.66 C 45.14 27.63 41.46 32.41 38.57 29.30 C 37.09 26.46 39.45 23.51 39.92 20.71 C 35.99 23.45 33.53 28.00 29.04 30.02 C 27.74 30.73 25.76 30.58 25.15 29.03 C 23.33 25.86 25.02 22.20 25.81 18.98 C 25.38 18.80 24.52 18.45 24.09 18.28 C 24.96 17.28 25.84 16.31 26.75 15.37 C 27.30 13.84 27.82 12.30 28.33 10.76 Z"
     id="path3015"
     fill="#243db3" />
</svg>
